<mxfile host="app.diagrams.net" agent="Mozilla/5.0 (X11; Linux x86_64) AppleWebKit/537.36 (KHTML, like Gecko) Chrome/131.0.0.0 Safari/537.36" version="26.0.2">
  <diagram name="Page-1" id="efa7a0a1-bf9b-a30e-e6df-94a7791c09e9">
    <mxGraphModel dx="429" dy="295" grid="1" gridSize="10" guides="1" tooltips="1" connect="1" arrows="1" fold="1" page="1" pageScale="1" pageWidth="826" pageHeight="1169" background="none" math="0" shadow="0">
      <root>
        <mxCell id="0" />
        <mxCell id="1" parent="0" />
        <mxCell id="BFDw-O433984VzKu3w-G-214" value="&lt;div style=&quot;box-sizing: border-box; width: 100%; background-image: initial; background-position: initial; background-size: initial; background-repeat: initial; background-attachment: initial; background-origin: initial; background-clip: initial; padding: 2px;&quot;&gt;&lt;font style=&quot;color: light-dark(rgb(0, 0, 0), rgb(0, 0, 204)); background-color: light-dark(rgb(255, 255, 255), rgb(195, 171, 208));&quot;&gt;Tablename&lt;/font&gt;&lt;/div&gt;&lt;table style=&quot;width:100%;font-size:1em;&quot; cellpadding=&quot;2&quot; cellspacing=&quot;0&quot;&gt;&lt;tbody&gt;&lt;tr&gt;&lt;td&gt;&lt;span style=&quot;background-color: light-dark(rgb(255, 255, 255), rgb(234, 107, 102));&quot;&gt;&lt;font style=&quot;color: light-dark(rgb(0, 0, 0), rgb(51, 0, 102));&quot;&gt;PK&lt;/font&gt;&lt;/span&gt;&lt;/td&gt;&lt;td&gt;&lt;font style=&quot;color: light-dark(rgb(0, 0, 0), rgb(234, 107, 102)); background-color: light-dark(#ffffff, var(--ge-dark-color, #121212));&quot;&gt;uniqueId&lt;/font&gt;&lt;/td&gt;&lt;/tr&gt;&lt;tr&gt;&lt;td&gt;FK1&lt;/td&gt;&lt;td&gt;foreignKey&lt;/td&gt;&lt;/tr&gt;&lt;tr&gt;&lt;td&gt;&lt;/td&gt;&lt;td&gt;fieldname&lt;/td&gt;&lt;/tr&gt;&lt;/tbody&gt;&lt;/table&gt;" style="verticalAlign=top;align=center;overflow=fill;html=1;whiteSpace=wrap;strokeWidth=3;rounded=1;glass=0;shadow=0;fillStyle=auto;fillColor=light-dark(#d5e8d4, #5866ad);gradientColor=light-dark(#97D077,#FF0080);strokeColor=light-dark(#000000,#009900);gradientDirection=north;arcSize=29;" vertex="1" parent="1">
          <mxGeometry x="60" y="150" width="100" height="140" as="geometry" />
        </mxCell>
      </root>
    </mxGraphModel>
  </diagram>
</mxfile>
